Coordinates
version=1
nRows=14
nColumns=40
inDegrees=yes

Units are S.I. units (second, meters, Newtons, ...)
If the header above contains a line with 'inDegrees', this indicates whether rotational values are in degrees (yes) or radians (no).

endheader
time	pelvis_tilt	pelvis_list	pelvis_rotation	pelvis_tx	pelvis_ty	pelvis_tz	hip_flexion_r	hip_adduction_r	hip_rotation_r	knee_angle_r	knee_angle_r_beta	ankle_angle_r	subtalar_angle_r	mtp_angle_r	hip_flexion_l	hip_adduction_l	hip_rotation_l	knee_angle_l	knee_angle_l_beta	ankle_angle_l	subtalar_angle_l	mtp_angle_l	lumbar_extension	lumbar_bending	lumbar_rotation	arm_flex_r	arm_add_r	arm_rot_r	elbow_flex_r	pro_sup_r	wrist_flex_r	wrist_dev_r	arm_flex_l	arm_add_l	arm_rot_l	elbow_flex_l	pro_sup_l	wrist_flex_l	wrist_dev_l
      5.05000000	    -88.87038464	     83.52368014	    -88.18549747	      0.83168051	      0.27402669	      0.57590342	     45.00000012	     -9.99999999	      0.00000000	     60.00014062	      1.04720001	     -4.99999985	      0.00000000	      0.00000000	     45.00000012	     -9.99999999	      0.00000000	     60.00014062	      1.04720001	     -4.99999985	      0.00000000	      0.00000000	    -25.01869956	     -1.94636646	      2.44033356	     -2.58698474	    -34.60038202	     33.09960198	     98.10226216	     87.16797444	      0.00000000	      0.00000000	      4.92020740	    -36.78176129	     42.82969529	     93.69367815	     89.23539952	      0.00000000	      0.00000000
      5.05500000	    -88.87472871	     83.47843449	    -88.22858434	      0.83172699	      0.27411744	      0.57593549	     45.00000012	     -9.99999999	      0.00000000	     60.00014062	      1.04720001	     -4.99999985	      0.00000000	      0.00000000	     45.00000012	     -9.99999999	      0.00000000	     60.00014062	      1.04720001	     -4.99999985	      0.00000000	      0.00000000	    -25.06131298	     -1.96134205	      2.45071031	     -2.50270624	    -34.55043915	     33.10188279	     98.07432609	     87.13543463	      0.00000000	      0.00000000	      4.92088529	    -36.78105591	     42.81122712	     93.69861799	     89.23669010	      0.00000000	      0.00000000
      5.06000000	    -88.88640323	     83.52380332	    -88.22949351	      0.83187240	      0.27407206	      0.57582759	     45.00000012	     -9.99999999	      0.00000000	     60.00014062	      1.04720001	     -4.99999985	      0.00000000	      0.00000000	     45.00000012	     -9.99999999	      0.00000000	     60.00014062	      1.04720001	     -4.99999985	      0.00000000	      0.00000000	    -25.01964225	     -1.95329271	      2.42421791	     -2.46145887	    -34.49505752	     33.05632960	     98.03046818	     87.10580661	      0.00000000	      0.00000000	      4.92023341	    -36.77777515	     42.80821357	     93.68066210	     89.23406320	      0.00000000	      0.00000000
      5.06500000	    -88.88714130	     83.35694309	    -88.25785094	      0.83181757	      0.27408668	      0.57613580	     45.00000012	     -9.99999999	      0.00000000	     60.00014062	      1.04720001	     -4.99999985	      0.00000000	      0.00000000	     45.00000012	     -9.99999999	      0.00000000	     60.00014062	      1.04720001	     -4.99999985	      0.00000000	      0.00000000	    -25.19497401	     -1.95127242	      2.42229563	     -2.38842495	    -34.44082698	     33.04577954	     98.00339151	     87.12038578	      0.00000000	      0.00000000	      4.94671397	    -36.77938972	     42.81824897	     93.66330523	     89.23811668	      0.00000000	      0.00000000
      5.07000000	    -88.91412301	     83.51890398	    -88.22799040	      0.83205076	      0.27407360	      0.57576801	     45.00000012	     -9.99999999	      0.00000000	     60.00014062	      1.04720001	     -4.99999985	      0.00000000	      0.00000000	     45.00000012	     -9.99999999	      0.00000000	     60.00014062	      1.04720001	     -4.99999985	      0.00000000	      0.00000000	    -25.02550247	     -1.95242178	      2.37468702	     -2.31947002	    -34.38413069	     33.06530114	     97.96034021	     86.80432651	      0.00000000	      0.00000000	      4.91991762	    -36.78900345	     42.77066561	     93.68379383	     89.24509714	      0.00000000	      0.00000000
      5.07500000	    -88.97695816	     84.63671064	    -88.58143403	      0.83336782	      0.27508328	      0.57339798	     45.00000012	     -9.99999999	      0.00000000	     60.00014062	      1.04720001	     -4.99999985	      0.00000000	      0.00000000	     45.00000012	     -9.99999999	      0.00000000	     60.00014062	      1.04720001	     -4.99999985	      0.00000000	      0.00000000	    -23.87918991	     -2.16035929	      2.73515833	     -2.30900154	    -34.28140216	     32.98623465	     97.97569642	     87.16119878	      0.00000000	      0.00000000	      4.93788521	    -36.87876369	     42.80585542	     93.76254975	     89.23116032	      0.00000000	      0.00000000
      5.08000000	    -88.99439832	     84.49104749	    -88.59962128	      0.83332398	      0.27525037	      0.57372972	     45.00000012	     -9.99999999	      0.00000000	     60.00014062	      1.04720001	     -4.99999985	      0.00000000	      0.00000000	     45.00000012	     -9.99999999	      0.00000000	     60.00014062	      1.04720001	     -4.99999985	      0.00000000	      0.00000000	    -24.03389583	     -2.17614517	      2.73898485	     -2.19555377	    -34.17211977	     32.97760436	     97.90633422	     87.12746311	      0.00000000	      0.00000000	      4.96733712	    -36.91352457	     42.81727258	     93.76373406	     89.23009546	      0.00000000	      0.00000000
      5.08500000	    -89.01753685	     84.76100784	    -88.60259553	      0.83360835	      0.27524341	      0.57317205	     45.00000012	     -9.99999999	      0.00000000	     60.00014062	      1.04720001	     -4.99999985	      0.00000000	      0.00000000	     45.00000012	     -9.99999999	      0.00000000	     60.00014062	      1.04720001	     -4.99999985	      0.00000000	      0.00000000	    -23.73968491	     -2.18215788	      2.73022036	     -2.10706027	    -34.13262229	     33.08548229	     97.85611070	     86.69850107	      0.00000000	      0.00000000	      4.94933520	    -36.91348583	     42.79487757	     93.72787752	     89.22474431	      0.00000000	      0.00000000
      5.09000000	    -89.00948298	     84.46925291	    -88.63719739	      0.83344584	      0.27527187	      0.57371847	     45.00000012	     -9.99999999	      0.00000000	     60.00014062	      1.04720001	     -4.99999985	      0.00000000	      0.00000000	     45.00000012	     -9.99999999	      0.00000000	     60.00014062	      1.04720001	     -4.99999985	      0.00000000	      0.00000000	    -24.05059200	     -2.17714778	      2.75659025	     -2.07351616	    -34.06799885	     32.94808498	     97.81792402	     87.17611616	      0.00000000	      0.00000000	      5.02809576	    -36.93664976	     42.84198395	     93.73478455	     89.22715770	      0.00000000	      0.00000000
      5.09500000	    -89.00385659	     84.48147678	    -88.66451063	      0.83352808	      0.27525607	      0.57370150	     45.00000012	     -9.99999999	      0.00000000	     60.00014062	      1.04720001	     -4.99999985	      0.00000000	      0.00000000	     45.00000012	     -9.99999999	      0.00000000	     60.00014062	      1.04720001	     -4.99999985	      0.00000000	      0.00000000	    -24.03636365	     -2.17518762	      2.76256892	     -1.98527487	    -34.01055913	     32.93213924	     97.78592481	     87.08511210	      0.00000000	      0.00000000	      5.07908629	    -36.94520637	     42.89949875	     93.70975737	     89.22393722	      0.00000000	      0.00000000
      5.10000000	    -89.01421295	     84.44056960	    -88.65167076	      0.83358309	      0.27521298	      0.57373119	     45.00000012	     -9.99999999	      0.00000000	     60.00014062	      1.04720001	     -4.99999985	      0.00000000	      0.00000000	     45.00000012	     -9.99999999	      0.00000000	     60.00014062	      1.04720001	     -4.99999985	      0.00000000	      0.00000000	    -24.07558696	     -2.15990835	      2.73289584	     -1.89951830	    -33.97028355	     32.93603267	     97.75953801	     86.93392775	      0.00000000	      0.00000000	      5.11922811	    -36.96471074	     42.92517977	     93.69030062	     89.23903463	      0.00000000	      0.00000000
      5.10500000	    -89.02287435	     84.39320464	    -88.68318436	      0.83359304	      0.27519519	      0.57380017	     45.00000012	     -9.99999999	      0.00000000	     60.00014062	      1.04720001	     -4.99999985	      0.00000000	      0.00000000	     45.00000012	     -9.99999999	      0.00000000	     60.00014062	      1.04720001	     -4.99999985	      0.00000000	      0.00000000	    -24.11854607	     -2.15450327	      2.76372615	     -1.85445694	    -33.91959031	     32.86438207	     97.73821881	     87.05298990	      0.00000000	      0.00000000	      5.14760105	    -36.96331209	     42.94445857	     93.68329141	     89.22218324	      0.00000000	      0.00000000
      5.11000000	    -89.03101663	     84.44494138	    -88.69250881	      0.83369176	      0.27511298	      0.57367908	     45.00000012	     -9.99999999	      0.00000000	     60.00014062	      1.04720001	     -4.99999985	      0.00000000	      0.00000000	     45.00000012	     -9.99999999	      0.00000000	     60.00014062	      1.04720001	     -4.99999985	      0.00000000	      0.00000000	    -24.05460327	     -2.13896858	      2.77655202	     -1.81772727	    -33.87929278	     32.80535364	     97.73128899	     86.99959917	      0.00000000	      0.00000000	      5.22826155	    -36.96426660	     43.08432168	     93.64439588	     89.22077422	      0.00000000	      0.00000000
      5.11500000	    -89.03715421	     84.38422481	    -88.69403169	      0.83370057	      0.27506269	      0.57376384	     45.00000012	     -9.99999999	      0.00000000	     60.00014062	      1.04720001	     -4.99999985	      0.00000000	      0.00000000	     45.00000012	     -9.99999999	      0.00000000	     60.00014062	      1.04720001	     -4.99999985	      0.00000000	      0.00000000	    -24.11397306	     -2.12647492	      2.75431487	     -1.73222973	    -33.84918040	     32.81684392	     97.74432333	     87.04065236	      0.00000000	      0.00000000	      5.23361263	    -36.97136357	     43.06528216	     93.64805238	     89.22101507	      0.00000000	      0.00000000
